G75*
G70*
%OFA0B0*%
%FSLAX24Y24*%
%IPPOS*%
%LPD*%
%AMOC8*
5,1,8,0,0,1.08239X$1,22.5*
%
%ADD10R,0.0740X0.0740*%
%ADD11C,0.0740*%
%ADD12C,0.0520*%
%ADD13C,0.0160*%
D10*
X009680Y023180D03*
D11*
X009680Y022180D03*
X009680Y021180D03*
X009680Y020180D03*
X009680Y019180D03*
X009680Y018180D03*
X009680Y017180D03*
X009680Y016180D03*
X009680Y015180D03*
X009680Y014180D03*
X009680Y013180D03*
X009680Y012180D03*
X010680Y012180D03*
X011680Y012180D03*
X012680Y012180D03*
X013680Y012180D03*
X014680Y012180D03*
X015680Y012180D03*
X015680Y013180D03*
X015680Y014180D03*
X015680Y015180D03*
X015680Y016180D03*
X015680Y017180D03*
X015680Y018180D03*
X015680Y019180D03*
X015680Y020180D03*
X015680Y021180D03*
X015680Y022180D03*
X015680Y023180D03*
X014680Y019180D03*
X010680Y019180D03*
D12*
X003440Y001180D02*
X002920Y001180D01*
X002920Y002180D02*
X003440Y002180D01*
X003440Y003180D02*
X002920Y003180D01*
X002920Y004180D02*
X003440Y004180D01*
X003440Y005180D02*
X002920Y005180D01*
X002920Y006180D02*
X003440Y006180D01*
X003440Y007180D02*
X002920Y007180D01*
X002920Y008180D02*
X003440Y008180D01*
X003440Y009180D02*
X002920Y009180D01*
X002920Y010180D02*
X003440Y010180D01*
X003440Y011180D02*
X002920Y011180D01*
X002920Y012180D02*
X003440Y012180D01*
X003440Y013180D02*
X002920Y013180D01*
X002920Y014180D02*
X003440Y014180D01*
X003440Y015180D02*
X002920Y015180D01*
D13*
X003180Y015180D02*
X003680Y015680D01*
X003680Y021680D01*
X004180Y022180D01*
X009680Y022180D01*
X009680Y021180D02*
X004680Y021180D01*
X004180Y020680D01*
X004180Y014680D01*
X003680Y014180D01*
X003180Y014180D01*
X003180Y013180D02*
X004180Y013180D01*
X004680Y013680D01*
X004680Y019680D01*
X005180Y020180D01*
X009680Y020180D01*
X009680Y019180D02*
X005680Y019180D01*
X005180Y018680D01*
X005180Y012680D01*
X004680Y012180D01*
X003180Y012180D01*
X003180Y011180D02*
X005180Y011180D01*
X005680Y011680D01*
X005680Y018180D01*
X005930Y018430D01*
X006180Y018680D01*
X010180Y018680D01*
X010680Y019180D01*
X009680Y018180D02*
X006680Y018180D01*
X006180Y017680D01*
X006180Y010680D01*
X005680Y010180D01*
X003180Y010180D01*
X003180Y009180D02*
X006180Y009180D01*
X006680Y009680D01*
X006680Y016680D01*
X007180Y017180D01*
X009680Y017180D01*
X009680Y016180D02*
X007680Y016180D01*
X007180Y015680D01*
X007180Y008680D01*
X006680Y008180D01*
X003180Y008180D01*
X003180Y007180D02*
X007180Y007180D01*
X007680Y007680D01*
X007680Y014680D01*
X008180Y015180D01*
X009680Y015180D01*
X009680Y014180D02*
X008680Y014180D01*
X008180Y013680D01*
X008180Y006680D01*
X007680Y006180D01*
X003180Y006180D01*
X003180Y005180D02*
X008180Y005180D01*
X008680Y005680D01*
X008680Y012680D01*
X009180Y013180D01*
X009680Y013180D01*
X009680Y012180D02*
X009180Y011680D01*
X009180Y004680D01*
X008680Y004180D01*
X003180Y004180D01*
X003180Y003180D02*
X009180Y003180D01*
X009680Y003680D01*
X009680Y011180D01*
X010180Y011680D01*
X010680Y012180D01*
X010680Y011180D02*
X014180Y011180D01*
X014680Y011680D01*
X014680Y012180D01*
X015180Y012680D02*
X015680Y013180D01*
X015180Y012680D02*
X015180Y011180D01*
X014680Y010680D01*
X011180Y010680D01*
X010680Y010180D01*
X010680Y001680D01*
X010180Y001180D01*
X003180Y001180D01*
X003180Y002180D02*
X009680Y002180D01*
X010180Y002680D01*
X010180Y010680D01*
X010680Y011180D01*
M02*
