G75*
G70*
%OFA0B0*%
%FSLAX24Y24*%
%IPPOS*%
%LPD*%
%AMOC8*
5,1,8,0,0,1.08239X$1,22.5*
%
%ADD10C,0.0000*%
%ADD11C,0.0110*%
%ADD12C,0.0080*%
%ADD13C,0.0060*%
%ADD14C,0.0050*%
D10*
X013991Y001680D02*
X013993Y001732D01*
X013999Y001784D01*
X014009Y001835D01*
X014022Y001885D01*
X014040Y001935D01*
X014061Y001982D01*
X014085Y002028D01*
X014114Y002072D01*
X014145Y002114D01*
X014179Y002153D01*
X014216Y002190D01*
X014256Y002223D01*
X014299Y002254D01*
X014343Y002281D01*
X014389Y002305D01*
X014438Y002325D01*
X014487Y002341D01*
X014538Y002354D01*
X014589Y002363D01*
X014641Y002368D01*
X014693Y002369D01*
X014745Y002366D01*
X014797Y002359D01*
X014848Y002348D01*
X014898Y002334D01*
X014947Y002315D01*
X014994Y002293D01*
X015039Y002268D01*
X015083Y002239D01*
X015124Y002207D01*
X015163Y002172D01*
X015198Y002134D01*
X015231Y002093D01*
X015261Y002051D01*
X015287Y002006D01*
X015310Y001959D01*
X015329Y001910D01*
X015345Y001860D01*
X015357Y001810D01*
X015365Y001758D01*
X015369Y001706D01*
X015369Y001654D01*
X015365Y001602D01*
X015357Y001550D01*
X015345Y001500D01*
X015329Y001450D01*
X015310Y001401D01*
X015287Y001354D01*
X015261Y001309D01*
X015231Y001267D01*
X015198Y001226D01*
X015163Y001188D01*
X015124Y001153D01*
X015083Y001121D01*
X015039Y001092D01*
X014994Y001067D01*
X014947Y001045D01*
X014898Y001026D01*
X014848Y001012D01*
X014797Y001001D01*
X014745Y000994D01*
X014693Y000991D01*
X014641Y000992D01*
X014589Y000997D01*
X014538Y001006D01*
X014487Y001019D01*
X014438Y001035D01*
X014389Y001055D01*
X014343Y001079D01*
X014299Y001106D01*
X014256Y001137D01*
X014216Y001170D01*
X014179Y001207D01*
X014145Y001246D01*
X014114Y001288D01*
X014085Y001332D01*
X014061Y001378D01*
X014040Y001425D01*
X014022Y001475D01*
X014009Y001525D01*
X013999Y001576D01*
X013993Y001628D01*
X013991Y001680D01*
X000991Y022180D02*
X000993Y022232D01*
X000999Y022284D01*
X001009Y022335D01*
X001022Y022385D01*
X001040Y022435D01*
X001061Y022482D01*
X001085Y022528D01*
X001114Y022572D01*
X001145Y022614D01*
X001179Y022653D01*
X001216Y022690D01*
X001256Y022723D01*
X001299Y022754D01*
X001343Y022781D01*
X001389Y022805D01*
X001438Y022825D01*
X001487Y022841D01*
X001538Y022854D01*
X001589Y022863D01*
X001641Y022868D01*
X001693Y022869D01*
X001745Y022866D01*
X001797Y022859D01*
X001848Y022848D01*
X001898Y022834D01*
X001947Y022815D01*
X001994Y022793D01*
X002039Y022768D01*
X002083Y022739D01*
X002124Y022707D01*
X002163Y022672D01*
X002198Y022634D01*
X002231Y022593D01*
X002261Y022551D01*
X002287Y022506D01*
X002310Y022459D01*
X002329Y022410D01*
X002345Y022360D01*
X002357Y022310D01*
X002365Y022258D01*
X002369Y022206D01*
X002369Y022154D01*
X002365Y022102D01*
X002357Y022050D01*
X002345Y022000D01*
X002329Y021950D01*
X002310Y021901D01*
X002287Y021854D01*
X002261Y021809D01*
X002231Y021767D01*
X002198Y021726D01*
X002163Y021688D01*
X002124Y021653D01*
X002083Y021621D01*
X002039Y021592D01*
X001994Y021567D01*
X001947Y021545D01*
X001898Y021526D01*
X001848Y021512D01*
X001797Y021501D01*
X001745Y021494D01*
X001693Y021491D01*
X001641Y021492D01*
X001589Y021497D01*
X001538Y021506D01*
X001487Y021519D01*
X001438Y021535D01*
X001389Y021555D01*
X001343Y021579D01*
X001299Y021606D01*
X001256Y021637D01*
X001216Y021670D01*
X001179Y021707D01*
X001145Y021746D01*
X001114Y021788D01*
X001085Y021832D01*
X001061Y021878D01*
X001040Y021925D01*
X001022Y021975D01*
X001009Y022025D01*
X000999Y022076D01*
X000993Y022128D01*
X000991Y022180D01*
D11*
X012433Y008058D02*
X012334Y007960D01*
X012334Y007665D01*
X012925Y007665D01*
X012925Y007960D01*
X012827Y008058D01*
X012433Y008058D01*
X012630Y008309D02*
X012827Y008309D01*
X012925Y008408D01*
X012925Y008604D01*
X012827Y008703D01*
X012630Y008703D01*
X012531Y008604D01*
X012531Y008408D01*
X012630Y008309D01*
X012531Y008954D02*
X012531Y009052D01*
X012630Y009151D01*
X012531Y009249D01*
X012630Y009347D01*
X012925Y009347D01*
X012925Y009151D02*
X012630Y009151D01*
X012531Y008954D02*
X012925Y008954D01*
X012827Y009598D02*
X012630Y009598D01*
X012531Y009697D01*
X012531Y009894D01*
X012630Y009992D01*
X012728Y009992D01*
X012728Y009598D01*
X012827Y009598D02*
X012925Y009697D01*
X012925Y009894D01*
X013384Y009509D02*
X013975Y009509D01*
X013975Y009213D01*
X013877Y009115D01*
X013680Y009115D01*
X013581Y009213D01*
X013581Y009509D01*
X013581Y008873D02*
X013581Y008775D01*
X013778Y008578D01*
X013975Y008578D02*
X013581Y008578D01*
X013680Y008327D02*
X013581Y008229D01*
X013581Y008032D01*
X013778Y008032D02*
X013778Y008327D01*
X013680Y008327D02*
X013975Y008327D01*
X013975Y008032D01*
X013877Y007933D01*
X013778Y008032D01*
X013680Y007682D02*
X013581Y007584D01*
X013581Y007387D01*
X013680Y007289D01*
X013877Y007289D01*
X013975Y007387D01*
X013975Y007584D01*
X013877Y007682D01*
X013680Y007682D01*
X013680Y007038D02*
X013581Y006939D01*
X013581Y006644D01*
X013384Y006644D02*
X013975Y006644D01*
X013975Y006939D01*
X013877Y007038D01*
X013680Y007038D01*
X013581Y006393D02*
X014073Y006393D01*
X014172Y006295D01*
X014172Y006196D01*
X013975Y006098D02*
X013975Y006393D01*
X013975Y006098D02*
X013877Y006000D01*
X013581Y006000D01*
X013680Y005749D02*
X013778Y005749D01*
X013778Y005355D01*
X013680Y005355D02*
X013581Y005453D01*
X013581Y005650D01*
X013680Y005749D01*
X013975Y005650D02*
X013975Y005453D01*
X013877Y005355D01*
X013680Y005355D01*
X013975Y005104D02*
X013680Y004809D01*
X013778Y004711D02*
X013384Y005104D01*
X013384Y004711D02*
X013975Y004711D01*
X014434Y004648D02*
X014533Y004549D01*
X014927Y004549D01*
X015025Y004648D01*
X015025Y004845D01*
X014927Y004943D01*
X014927Y005194D02*
X014730Y005194D01*
X014631Y005292D01*
X014631Y005489D01*
X014730Y005588D01*
X014927Y005588D01*
X015025Y005489D01*
X015025Y005292D01*
X014927Y005194D01*
X014533Y004943D02*
X014434Y004845D01*
X014434Y004648D01*
X014631Y005838D02*
X014631Y006134D01*
X014730Y006232D01*
X015025Y006232D01*
X015025Y005838D02*
X014631Y005838D01*
X014631Y006483D02*
X015025Y006680D01*
X014631Y006877D01*
X014730Y007128D02*
X014631Y007226D01*
X014631Y007423D01*
X014730Y007521D01*
X014828Y007521D01*
X014828Y007128D01*
X014730Y007128D02*
X014927Y007128D01*
X015025Y007226D01*
X015025Y007423D01*
X015025Y007772D02*
X014631Y007772D01*
X014631Y007969D02*
X014631Y008067D01*
X014631Y007969D02*
X014828Y007772D01*
X014631Y008309D02*
X014631Y008506D01*
X014533Y008408D02*
X014927Y008408D01*
X015025Y008506D01*
X014927Y008739D02*
X014730Y008739D01*
X014631Y008837D01*
X014631Y009034D01*
X014730Y009133D01*
X014828Y009133D01*
X014828Y008739D01*
X014927Y008739D02*
X015025Y008837D01*
X015025Y009034D01*
X015025Y009383D02*
X014631Y009383D01*
X014828Y009383D02*
X014631Y009580D01*
X014631Y009679D01*
X012925Y006787D02*
X012925Y006590D01*
X012925Y006689D02*
X012334Y006689D01*
X012334Y006590D01*
X012630Y006340D02*
X012925Y006340D01*
X012925Y006044D01*
X012827Y005946D01*
X012728Y006044D01*
X012728Y006340D01*
X012630Y006340D02*
X012531Y006241D01*
X012531Y006044D01*
X012531Y005713D02*
X012531Y005516D01*
X012433Y005615D02*
X012827Y005615D01*
X012925Y005713D01*
X012728Y005265D02*
X012630Y005265D01*
X012531Y005167D01*
X012531Y004970D01*
X012630Y004872D01*
X012827Y004872D01*
X012925Y004970D01*
X012925Y005167D01*
X012728Y005265D02*
X012728Y004872D01*
X012925Y004621D02*
X012334Y004621D01*
X012531Y004424D01*
X012334Y004227D01*
X012925Y004227D01*
D12*
X015970Y005378D02*
X015970Y005589D01*
X016040Y005659D01*
X016110Y005659D01*
X016180Y005589D01*
X016180Y005378D01*
X016390Y005378D02*
X015970Y005378D01*
X016180Y005589D02*
X016250Y005659D01*
X016320Y005659D01*
X016390Y005589D01*
X016390Y005378D01*
X016390Y005839D02*
X016390Y006049D01*
X016320Y006119D01*
X016250Y006119D01*
X016180Y006049D01*
X016180Y005839D01*
X016180Y006049D02*
X016110Y006119D01*
X016040Y006119D01*
X015970Y006049D01*
X015970Y005839D01*
X016390Y005839D01*
X016390Y006760D02*
X016390Y007040D01*
X016390Y006900D02*
X015970Y006900D01*
X016110Y006760D01*
X016040Y007220D02*
X015970Y007290D01*
X015970Y007430D01*
X016040Y007500D01*
X016320Y007220D01*
X016390Y007290D01*
X016390Y007430D01*
X016320Y007500D01*
X016040Y007500D01*
X016040Y007220D02*
X016320Y007220D01*
X016390Y007680D02*
X015970Y007961D01*
X016110Y008141D02*
X015970Y008281D01*
X016390Y008281D01*
X016390Y008141D02*
X016390Y008421D01*
X016390Y008811D02*
X015970Y008811D01*
X016180Y008601D01*
X016180Y008881D01*
D13*
X002680Y001580D02*
X002680Y000680D01*
X003680Y000680D01*
X003680Y001580D01*
X003580Y001680D01*
X003680Y001780D01*
X003680Y002580D01*
X003580Y002680D01*
X003680Y002780D01*
X003680Y003580D01*
X003580Y003680D01*
X003680Y003780D01*
X003680Y004580D01*
X003580Y004680D01*
X003680Y004780D01*
X003680Y005580D01*
X003580Y005680D01*
X003680Y005780D01*
X003680Y006580D01*
X003580Y006680D01*
X003680Y006780D01*
X003680Y007580D01*
X003580Y007680D01*
X003680Y007780D01*
X003680Y008580D01*
X003580Y008680D01*
X003680Y008780D01*
X003680Y009580D01*
X003580Y009680D01*
X003680Y009780D01*
X003680Y010580D01*
X003580Y010680D01*
X003680Y010780D01*
X003680Y011580D01*
X003580Y011680D01*
X003680Y011780D01*
X003680Y012580D01*
X003580Y012680D01*
X003680Y012780D01*
X003680Y013580D01*
X003580Y013680D01*
X003680Y013780D01*
X003680Y014580D01*
X003580Y014680D01*
X003680Y014780D01*
X003680Y015680D01*
X002680Y015680D01*
X002680Y014780D01*
X002780Y014680D01*
X002680Y014580D01*
X002680Y013780D01*
X002780Y013680D01*
X002680Y013580D01*
X002680Y012780D01*
X002780Y012680D01*
X002680Y012580D01*
X002680Y011780D01*
X002780Y011680D01*
X002680Y011580D01*
X002680Y010780D01*
X002780Y010680D01*
X002680Y010580D01*
X002680Y009780D01*
X002780Y009680D01*
X002680Y009580D01*
X002680Y008780D01*
X002780Y008680D01*
X002680Y008580D01*
X002680Y007780D01*
X002780Y007680D01*
X002680Y007580D01*
X002680Y006780D01*
X002780Y006680D01*
X002680Y006580D01*
X002680Y005780D01*
X002780Y005680D01*
X002680Y005580D01*
X002680Y004780D01*
X002780Y004680D01*
X002680Y004580D01*
X002680Y003780D01*
X002780Y003680D01*
X002680Y003580D01*
X002680Y002780D01*
X002780Y002680D01*
X002680Y002580D01*
X002680Y001780D01*
X002780Y001680D01*
X002680Y001580D01*
X009180Y011680D02*
X010180Y011680D01*
X010180Y023680D01*
X012280Y023680D01*
X012282Y023641D01*
X012288Y023602D01*
X012297Y023564D01*
X012310Y023527D01*
X012327Y023491D01*
X012347Y023458D01*
X012371Y023426D01*
X012397Y023397D01*
X012426Y023371D01*
X012458Y023347D01*
X012491Y023327D01*
X012527Y023310D01*
X012564Y023297D01*
X012602Y023288D01*
X012641Y023282D01*
X012680Y023280D01*
X012719Y023282D01*
X012758Y023288D01*
X012796Y023297D01*
X012833Y023310D01*
X012869Y023327D01*
X012902Y023347D01*
X012934Y023371D01*
X012963Y023397D01*
X012989Y023426D01*
X013013Y023458D01*
X013033Y023491D01*
X013050Y023527D01*
X013063Y023564D01*
X013072Y023602D01*
X013078Y023641D01*
X013080Y023680D01*
X015180Y023680D01*
X015180Y011680D01*
X010180Y011680D01*
X009180Y011680D02*
X009180Y023680D01*
X010180Y023680D01*
X015180Y023680D02*
X016180Y023680D01*
X016180Y011680D01*
X015180Y011680D01*
D14*
X010216Y023905D02*
X009915Y023905D01*
X010066Y023905D02*
X010066Y024355D01*
X009915Y024205D01*
X009755Y023830D02*
X009455Y023830D01*
X004255Y015245D02*
X004255Y014945D01*
X004255Y015095D02*
X003805Y015095D01*
X003955Y014945D01*
X004305Y014045D02*
X004305Y013745D01*
X004305Y013895D02*
X003855Y013895D01*
X004005Y013745D01*
X004155Y013584D02*
X003855Y013584D01*
X003855Y013284D02*
X004155Y013284D01*
X004305Y013434D01*
X004155Y013584D01*
X004155Y013124D02*
X004230Y013124D01*
X004305Y013049D01*
X004305Y012899D01*
X004230Y012824D01*
X004080Y012899D02*
X004080Y013049D01*
X004155Y013124D01*
X003930Y013124D02*
X003855Y013049D01*
X003855Y012899D01*
X003930Y012824D01*
X004005Y012824D01*
X004080Y012899D01*
X004030Y001495D02*
X004180Y001495D01*
X004255Y001420D01*
X004255Y001270D01*
X004180Y001195D01*
X004030Y001195D02*
X003955Y001345D01*
X003955Y001420D01*
X004030Y001495D01*
X003805Y001495D02*
X003805Y001195D01*
X004030Y001195D01*
X003805Y000884D02*
X004255Y000884D01*
X004255Y000734D02*
X004255Y001034D01*
X003955Y000734D02*
X003805Y000884D01*
M02*
