G75*
G70*
%OFA0B0*%
%FSLAX24Y24*%
%IPPOS*%
%LPD*%
%AMOC8*
5,1,8,0,0,1.08239X$1,22.5*
%
%ADD10C,0.0160*%
D10*
X000424Y000525D02*
X000525Y000424D01*
X000639Y000339D01*
X000765Y000270D01*
X000898Y000221D01*
X001038Y000190D01*
X001180Y000180D01*
X015680Y000180D01*
X015822Y000190D01*
X015962Y000221D01*
X016095Y000270D01*
X016221Y000339D01*
X016335Y000424D01*
X016436Y000525D01*
X016521Y000639D01*
X016590Y000765D01*
X016639Y000898D01*
X016670Y001038D01*
X016680Y001180D01*
X016680Y022680D01*
X016670Y022822D01*
X016639Y022962D01*
X016590Y023095D01*
X016521Y023221D01*
X016436Y023335D01*
X016335Y023436D01*
X016221Y023521D01*
X016095Y023590D01*
X015962Y023639D01*
X015822Y023670D01*
X015680Y023680D01*
X001180Y023680D01*
X001038Y023670D01*
X000898Y023639D01*
X000765Y023590D01*
X000639Y023521D01*
X000525Y023436D01*
X000424Y023335D01*
X000339Y023221D01*
X000270Y023095D01*
X000221Y022962D01*
X000190Y022822D01*
X000180Y022680D01*
X000180Y001180D01*
X000190Y001038D01*
X000221Y000898D01*
X000270Y000765D01*
X000339Y000639D01*
X000424Y000525D01*
X000382Y000582D02*
X016478Y000582D01*
X016576Y000741D02*
X000284Y000741D01*
X000220Y000899D02*
X016640Y000899D01*
X016671Y001058D02*
X000189Y001058D01*
X000180Y001216D02*
X016680Y001216D01*
X016680Y001375D02*
X000180Y001375D01*
X000180Y001533D02*
X016680Y001533D01*
X016680Y001692D02*
X000180Y001692D01*
X000180Y001850D02*
X016680Y001850D01*
X016680Y002009D02*
X000180Y002009D01*
X000180Y002167D02*
X016680Y002167D01*
X016680Y002326D02*
X000180Y002326D01*
X000180Y002484D02*
X016680Y002484D01*
X016680Y002643D02*
X000180Y002643D01*
X000180Y002801D02*
X016680Y002801D01*
X016680Y002960D02*
X000180Y002960D01*
X000180Y003118D02*
X016680Y003118D01*
X016680Y003277D02*
X000180Y003277D01*
X000180Y003435D02*
X016680Y003435D01*
X016680Y003594D02*
X000180Y003594D01*
X000180Y003752D02*
X016680Y003752D01*
X016680Y003911D02*
X000180Y003911D01*
X000180Y004069D02*
X016680Y004069D01*
X016680Y004228D02*
X000180Y004228D01*
X000180Y004386D02*
X016680Y004386D01*
X016680Y004545D02*
X000180Y004545D01*
X000180Y004703D02*
X016680Y004703D01*
X016680Y004862D02*
X000180Y004862D01*
X000180Y005020D02*
X016680Y005020D01*
X016680Y005179D02*
X000180Y005179D01*
X000180Y005337D02*
X016680Y005337D01*
X016680Y005496D02*
X000180Y005496D01*
X000180Y005654D02*
X016680Y005654D01*
X016680Y005813D02*
X000180Y005813D01*
X000180Y005971D02*
X016680Y005971D01*
X016680Y006130D02*
X000180Y006130D01*
X000180Y006288D02*
X016680Y006288D01*
X016680Y006447D02*
X000180Y006447D01*
X000180Y006605D02*
X016680Y006605D01*
X016680Y006764D02*
X000180Y006764D01*
X000180Y006922D02*
X016680Y006922D01*
X016680Y007081D02*
X000180Y007081D01*
X000180Y007239D02*
X016680Y007239D01*
X016680Y007398D02*
X000180Y007398D01*
X000180Y007556D02*
X016680Y007556D01*
X016680Y007715D02*
X000180Y007715D01*
X000180Y007873D02*
X016680Y007873D01*
X016680Y008032D02*
X000180Y008032D01*
X000180Y008190D02*
X016680Y008190D01*
X016680Y008349D02*
X000180Y008349D01*
X000180Y008507D02*
X016680Y008507D01*
X016680Y008666D02*
X000180Y008666D01*
X000180Y008824D02*
X016680Y008824D01*
X016680Y008983D02*
X000180Y008983D01*
X000180Y009141D02*
X016680Y009141D01*
X016680Y009300D02*
X000180Y009300D01*
X000180Y009458D02*
X016680Y009458D01*
X016680Y009617D02*
X000180Y009617D01*
X000180Y009775D02*
X016680Y009775D01*
X016680Y009934D02*
X000180Y009934D01*
X000180Y010092D02*
X016680Y010092D01*
X016680Y010251D02*
X000180Y010251D01*
X000180Y010409D02*
X016680Y010409D01*
X016680Y010568D02*
X000180Y010568D01*
X000180Y010726D02*
X016680Y010726D01*
X016680Y010885D02*
X000180Y010885D01*
X000180Y011043D02*
X016680Y011043D01*
X016680Y011202D02*
X000180Y011202D01*
X000180Y011360D02*
X016680Y011360D01*
X016680Y011519D02*
X000180Y011519D01*
X000180Y011677D02*
X016680Y011677D01*
X016680Y011836D02*
X000180Y011836D01*
X000180Y011994D02*
X016680Y011994D01*
X016680Y012153D02*
X000180Y012153D01*
X000180Y012311D02*
X016680Y012311D01*
X016680Y012470D02*
X000180Y012470D01*
X000180Y012628D02*
X016680Y012628D01*
X016680Y012787D02*
X000180Y012787D01*
X000180Y012945D02*
X016680Y012945D01*
X016680Y013104D02*
X000180Y013104D01*
X000180Y013262D02*
X016680Y013262D01*
X016680Y013421D02*
X000180Y013421D01*
X000180Y013579D02*
X016680Y013579D01*
X016680Y013738D02*
X000180Y013738D01*
X000180Y013896D02*
X016680Y013896D01*
X016680Y014055D02*
X000180Y014055D01*
X000180Y014213D02*
X016680Y014213D01*
X016680Y014372D02*
X000180Y014372D01*
X000180Y014530D02*
X016680Y014530D01*
X016680Y014689D02*
X000180Y014689D01*
X000180Y014847D02*
X016680Y014847D01*
X016680Y015006D02*
X000180Y015006D01*
X000180Y015164D02*
X016680Y015164D01*
X016680Y015323D02*
X000180Y015323D01*
X000180Y015481D02*
X016680Y015481D01*
X016680Y015640D02*
X000180Y015640D01*
X000180Y015798D02*
X016680Y015798D01*
X016680Y015957D02*
X000180Y015957D01*
X000180Y016115D02*
X016680Y016115D01*
X016680Y016274D02*
X000180Y016274D01*
X000180Y016432D02*
X016680Y016432D01*
X016680Y016591D02*
X000180Y016591D01*
X000180Y016749D02*
X016680Y016749D01*
X016680Y016908D02*
X000180Y016908D01*
X000180Y017066D02*
X016680Y017066D01*
X016680Y017225D02*
X000180Y017225D01*
X000180Y017383D02*
X016680Y017383D01*
X016680Y017542D02*
X000180Y017542D01*
X000180Y017700D02*
X016680Y017700D01*
X016680Y017859D02*
X000180Y017859D01*
X000180Y018017D02*
X016680Y018017D01*
X016680Y018176D02*
X000180Y018176D01*
X000180Y018334D02*
X016680Y018334D01*
X016680Y018493D02*
X000180Y018493D01*
X000180Y018651D02*
X016680Y018651D01*
X016680Y018810D02*
X000180Y018810D01*
X000180Y018968D02*
X016680Y018968D01*
X016680Y019127D02*
X000180Y019127D01*
X000180Y019285D02*
X016680Y019285D01*
X016680Y019444D02*
X000180Y019444D01*
X000180Y019602D02*
X016680Y019602D01*
X016680Y019761D02*
X000180Y019761D01*
X000180Y019919D02*
X016680Y019919D01*
X016680Y020078D02*
X000180Y020078D01*
X000180Y020236D02*
X016680Y020236D01*
X016680Y020395D02*
X000180Y020395D01*
X000180Y020553D02*
X016680Y020553D01*
X016680Y020712D02*
X000180Y020712D01*
X000180Y020870D02*
X016680Y020870D01*
X016680Y021029D02*
X000180Y021029D01*
X000180Y021187D02*
X016680Y021187D01*
X016680Y021346D02*
X000180Y021346D01*
X000180Y021504D02*
X016680Y021504D01*
X016680Y021663D02*
X000180Y021663D01*
X000180Y021821D02*
X016680Y021821D01*
X016680Y021980D02*
X000180Y021980D01*
X000180Y022138D02*
X016680Y022138D01*
X016680Y022297D02*
X000180Y022297D01*
X000180Y022455D02*
X016680Y022455D01*
X016680Y022614D02*
X000180Y022614D01*
X000187Y022772D02*
X016673Y022772D01*
X016646Y022931D02*
X000214Y022931D01*
X000268Y023089D02*
X016592Y023089D01*
X016501Y023248D02*
X000359Y023248D01*
X000495Y023406D02*
X016365Y023406D01*
X016141Y023565D02*
X000719Y023565D01*
X000526Y000424D02*
X016334Y000424D01*
X016081Y000265D02*
X000779Y000265D01*
M02*
