%
M48
M72
T01C0.0320
T02C0.0400
T03C0.1378
%
T01
X3180Y1180
X3180Y2180
X3180Y3180
X3180Y4180
X3180Y5180
X3180Y6180
X3180Y7180
X3180Y8180
X3180Y9180
X3180Y10180
X3180Y11180
X3180Y12180
X3180Y13180
X3180Y14180
X3180Y15180
T02
X9680Y15180
X9680Y14180
X9680Y13180
X9680Y12180
X10680Y12180
X11680Y12180
X12680Y12180
X13680Y12180
X14680Y12180
X15680Y12180
X15680Y13180
X15680Y14180
X15680Y15180
X15680Y16180
X15680Y17180
X15680Y18180
X15680Y19180
X15680Y20180
X15680Y21180
X15680Y22180
X15680Y23180
X14680Y19180
X10680Y19180
X9680Y19180
X9680Y18180
X9680Y17180
X9680Y16180
X9680Y20180
X9680Y21180
X9680Y22180
X9680Y23180
T03
X1680Y22180
X14680Y1680
M30
